<svg width="399" height="318" viewBox="0 0 399 318" fill="none" xmlns="http://www.w3.org/2000/svg">
<path d="M99.2701 13.8598C127.292 0.760744 161.089 0.87333 197.503 0.73233C234.069 0.326798 272.834 -0.220504 309.904 13.7746C347.127 27.5051 382.921 55.9309 394.165 92.0527C405.674 128.327 392.521 171.881 371.078 205.356C349.787 238.567 320.093 261.283 291.562 278.32C263.03 295.358 235.772 307.134 207.213 313.221C178.39 319.155 148.266 319.4 122.471 309.092C96.6752 298.785 74.7911 278.037 52.277 254.104C29.3457 230.282 5.63158 203.54 1.2548 173.852C-3.12198 144.164 11.6858 111.796 30.4209 82.4003C49.1561 53.0049 70.984 26.8061 99.2701 13.8598Z" fill="#AAD688"/>
</svg>
