<svg width="25" height="22" viewBox="0 0 25 22" fill="none" xmlns="http://www.w3.org/2000/svg">
<path d="M18.4521 18.2666L24.4482 12.2705C24.7998 11.9189 25 11.4355 25 10.9375C25 10.4395 24.7998 9.95606 24.4482 9.60449L18.4521 3.6084C18.1396 3.2959 17.7197 3.125 17.2803 3.125C16.3672 3.125 15.625 3.86719 15.625 4.78027V7.8125H9.375C8.51074 7.8125 7.8125 8.51074 7.8125 9.375V12.5C7.8125 13.3643 8.51074 14.0625 9.375 14.0625H15.625V17.0947C15.625 18.0078 16.3672 18.75 17.2803 18.75C17.7197 18.75 18.1396 18.5742 18.4521 18.2666ZM7.8125 18.75H4.6875C3.82324 18.75 3.125 18.0518 3.125 17.1875V4.6875C3.125 3.82324 3.82324 3.125 4.6875 3.125H7.8125C8.67676 3.125 9.375 2.42676 9.375 1.5625C9.375 0.698242 8.67676 0 7.8125 0H4.6875C2.09961 0 0 2.09961 0 4.6875V17.1875C0 19.7754 2.09961 21.875 4.6875 21.875H7.8125C8.67676 21.875 9.375 21.1768 9.375 20.3125C9.375 19.4482 8.67676 18.75 7.8125 18.75Z" fill="#213E23"/>
</svg>
